<svg width="28" height="28" viewBox="0 0 28 28" fill="none" xmlns="http://www.w3.org/2000/svg">
<path d="M11 19V25C11 25.5523 10.5523 26 10 26H6.5C5.94772 26 5.5 25.5523 5.5 25V16.5C5.5 15.9477 5.05228 15.5 4.5 15.5H3.35123C2.4694 15.5 2.01924 14.4416 2.63092 13.8064L13.2654 2.76283C13.6641 2.34879 14.329 2.3553 14.7195 2.77706L24.945 13.8206C25.5378 14.4608 25.0837 15.5 24.2112 15.5H23.5C22.9477 15.5 22.5 15.9477 22.5 16.5V25C22.5 25.5523 22.0523 26 21.5 26H18C17.4477 26 17 25.5523 17 25V19C17 18.4477 16.5523 18 16 18H12C11.4477 18 11 18.4477 11 19Z" stroke="white" stroke-width="2"/>
</svg>
