<svg width="44" height="44" viewBox="0 0 44 44" fill="none" xmlns="http://www.w3.org/2000/svg">
<rect width="44" height="44" rx="22" fill="#E2FFDC"/>
<path d="M19 27V33C19 33.5523 18.5523 34 18 34H14.5C13.9477 34 13.5 33.5523 13.5 33V24.5C13.5 23.9477 13.0523 23.5 12.5 23.5H11.3512C10.4694 23.5 10.0192 22.4416 10.6309 21.8064L21.2654 10.7628C21.6641 10.3488 22.329 10.3553 22.7195 10.7771L32.945 21.8206C33.5378 22.4608 33.0837 23.5 32.2112 23.5H31.5C30.9477 23.5 30.5 23.9477 30.5 24.5V33C30.5 33.5523 30.0523 34 29.5 34H26C25.4477 34 25 33.5523 25 33V27C25 26.4477 24.5523 26 24 26H20C19.4477 26 19 26.4477 19 27Z" stroke="#00712D" stroke-width="2"/>
</svg>
