<svg width="28" height="28" viewBox="0 0 28 28" fill="none" xmlns="http://www.w3.org/2000/svg">
<path d="M7.50001 20C7.60575 19.2599 7.79365 18.4074 8.07648 17.5M9.50001 22C21.9 24.8 23.3333 13.1667 22.5 7.00001C17.7554 6.63503 14.3566 8.33752 12 10.7401M17 13.5C15.1667 16.3333 10.3 22.3 5.50001 23.5M8.07648 17.5C5.93531 15.8333 2.93766 10.9 8.07648 4.5C9.21766 4.99341 11.6 6.93222 12 10.7401M8.07648 17.5C8.37608 16.5388 8.78219 15.5161 9.30999 14.5M12 10.7401C10.8781 11.8839 9.99235 13.1864 9.30999 14.5M8.07648 8.5C8.59099 9.66667 9.55799 12.5 9.30999 14.5" stroke="white" stroke-width="2" stroke-linecap="round" stroke-linejoin="round"/>
</svg>
