<svg width="44" height="44" viewBox="0 0 44 44" fill="none" xmlns="http://www.w3.org/2000/svg">
<rect width="44" height="44" rx="22" fill="#E2FFDC"/>
<path d="M15.5 28C15.6057 27.2599 15.7936 26.4074 16.0765 25.5M17.5 30C29.9 32.8 31.3333 21.1667 30.5 15C25.7554 14.635 22.3566 16.3375 20 18.7401M25 21.5C23.1667 24.3333 18.3 30.3 13.5 31.5M16.0765 25.5C13.9353 23.8333 10.9377 18.9 16.0765 12.5C17.2177 12.9934 19.6 14.9322 20 18.7401M16.0765 25.5C16.3761 24.5388 16.7822 23.5161 17.31 22.5M20 18.7401C18.8781 19.8839 17.9923 21.1864 17.31 22.5M16.0765 16.5C16.591 17.6667 17.558 20.5 17.31 22.5" stroke="#00712D" stroke-width="2" stroke-linecap="round" stroke-linejoin="round"/>
</svg>
