<svg width="28" height="28" viewBox="0 0 28 28" fill="none" xmlns="http://www.w3.org/2000/svg">
<path d="M11.8607 3.3356L11.5712 5.07266C11.5258 5.34531 11.3695 5.58699 11.1395 5.74031L10.4829 6.17809C10.1843 6.37715 9.80192 6.40096 9.48094 6.24047L7.64467 5.32233C7.25968 5.12984 6.79471 5.20529 6.49035 5.50965L5.05209 6.94791C4.72762 7.27238 4.66562 7.77603 4.90171 8.16951L5.76337 9.60561C5.91356 9.85593 5.94687 10.1594 5.85456 10.4363L5.65811 11.0257C5.55858 11.3243 5.32426 11.5586 5.02566 11.6581L3.29175 12.2361C2.83326 12.3889 2.54968 12.8478 2.61803 13.3262L2.89994 15.2996C2.9599 15.7193 3.27803 16.0556 3.69378 16.1388L4.87946 16.3759C5.2584 16.4517 5.55976 16.739 5.65348 17.1139L5.92158 18.1863C5.97256 18.3902 5.95798 18.6051 5.87991 18.8002L5.24489 20.3878C5.09633 20.7592 5.1834 21.1834 5.46626 21.4663L6.44791 22.4479C6.77238 22.7724 7.27603 22.8344 7.66951 22.5983L9.02928 21.7824C9.32246 21.6065 9.68519 21.5926 9.99099 21.7455L11.1295 22.3148C11.3667 22.4334 11.5471 22.6414 11.631 22.893L12.2721 24.8162C12.4082 25.2246 12.7903 25.5 13.2208 25.5H14.7792C15.2097 25.5 15.5918 25.2246 15.7279 24.8162L16.369 22.893C16.4529 22.6414 16.6333 22.4334 16.8705 22.3148L17.9472 21.7764C18.286 21.607 18.6914 21.6436 18.9944 21.8708L19.934 22.5755C20.2732 22.8299 20.7359 22.8427 21.0887 22.6075L22.7066 21.5289C23.1508 21.2328 23.2841 20.6401 23.0094 20.1824L22.1989 18.8315C22.0709 18.6182 22.027 18.3648 22.0758 18.1209L22.3693 16.6537C22.4484 16.2579 22.7579 15.9484 23.1537 15.8693L24.1961 15.6608C24.6635 15.5673 25 15.1569 25 14.6802V12.8198C25 12.3431 24.6635 11.9327 24.1961 11.8392L22.9796 11.5959C22.677 11.5354 22.4193 11.3386 22.2813 11.0626L21.7455 9.99099C21.5926 9.68519 21.6065 9.32246 21.7824 9.02928L22.5983 7.66951C22.8344 7.27603 22.7724 6.77238 22.4479 6.44791L21.0521 5.05209C20.7276 4.72762 20.224 4.66562 19.8305 4.90171L18.3944 5.76337C18.1441 5.91356 17.8406 5.94687 17.5637 5.85456L17.0712 5.69039C16.7198 5.57326 16.4619 5.27148 16.401 4.90611L16.1393 3.3356C16.0589 2.85341 15.6417 2.5 15.1529 2.5H12.8471C12.3583 2.5 11.9411 2.85341 11.8607 3.3356Z" stroke="white" stroke-width="2"/>
<circle cx="14" cy="14" r="4" stroke="white" stroke-width="2"/>
</svg>
