<svg width="22" height="22" viewBox="0 0 22 22" fill="none" xmlns="http://www.w3.org/2000/svg">
<path d="M9.31915 2.6209L9.09168 3.98573C9.05597 4.19996 8.93319 4.38985 8.75249 4.51032L8.23653 4.85429C8.00193 5.01069 7.70151 5.02939 7.44931 4.9033L6.00652 4.1819C5.70403 4.03066 5.3387 4.08994 5.09956 4.32908L3.9695 5.45914C3.71456 5.71408 3.66584 6.10981 3.85134 6.41897L4.52836 7.54733C4.64637 7.74402 4.67254 7.98245 4.60001 8.20005L4.44566 8.66309C4.36746 8.89771 4.18335 9.08181 3.94873 9.16002L2.58637 9.61414C2.22614 9.73421 2.00332 10.0947 2.05702 10.4706L2.27853 12.0212C2.32564 12.351 2.57559 12.6152 2.90225 12.6805L3.83386 12.8668C4.1316 12.9264 4.36838 13.1522 4.44202 13.4467L4.65267 14.2893C4.69272 14.4495 4.68127 14.6183 4.61993 14.7717L4.12099 16.019C4.00426 16.3109 4.07267 16.6442 4.29492 16.8664L5.06621 17.6377C5.32115 17.8927 5.71688 17.9414 6.02604 17.7559L7.09444 17.1148C7.32479 16.9766 7.60979 16.9657 7.85006 17.0858L8.74462 17.5331C8.931 17.6263 9.07273 17.7897 9.13863 17.9874L9.64235 19.4985C9.74929 19.8194 10.0495 20.0358 10.3877 20.0358H11.6123C11.9505 20.0358 12.2507 19.8194 12.3577 19.4985L12.8614 17.9874C12.9273 17.7897 13.069 17.6263 13.2554 17.5331L14.1014 17.1101C14.3676 16.977 14.6861 17.0057 14.9242 17.1843L15.6624 17.738C15.9289 17.9378 16.2925 17.9479 16.5697 17.7631L17.8409 16.9156C18.1899 16.683 18.2946 16.2173 18.0788 15.8576L17.442 14.7963C17.3414 14.6287 17.307 14.4296 17.3453 14.2379L17.5758 13.0851C17.6381 12.7741 17.8812 12.531 18.1922 12.4688L19.0112 12.305C19.3785 12.2315 19.6429 11.909 19.6429 11.5345V10.0728C19.6429 9.69824 19.3785 9.37577 19.0112 9.30232L18.0554 9.11115C17.8176 9.0636 17.6151 8.90894 17.5067 8.69207L17.0857 7.85013C16.9656 7.60986 16.9766 7.32486 17.1148 7.09451L17.7558 6.02611C17.9413 5.71695 17.8926 5.32122 17.6376 5.06628L16.5409 3.96957C16.286 3.71463 15.8903 3.66591 15.5811 3.85141L14.4527 4.52843C14.2561 4.64644 14.0176 4.67261 13.8 4.60008L13.4131 4.47109C13.137 4.37906 12.9344 4.14195 12.8865 3.85487L12.6809 2.6209C12.6177 2.24204 12.2899 1.96436 11.9058 1.96436H10.0942C9.71008 1.96436 9.38229 2.24204 9.31915 2.6209Z" fill="#ECFFE1"/>
<circle cx="11" cy="10.9999" r="3.92857" fill="#00712D"/>
</svg>
