<svg width="44" height="44" viewBox="0 0 44 44" fill="none" xmlns="http://www.w3.org/2000/svg">
<rect width="44" height="44" rx="22" fill="#E2FFDC"/>
<path d="M19.8607 11.3356L19.5712 13.0727C19.5258 13.3453 19.3695 13.587 19.1395 13.7403L18.4829 14.1781C18.1843 14.3772 17.8019 14.401 17.4809 14.2405L15.6447 13.3223C15.2597 13.1298 14.7947 13.2053 14.4903 13.5097L13.0521 14.9479C12.7276 15.2724 12.6656 15.776 12.9017 16.1695L13.7634 17.6056C13.9136 17.8559 13.9469 18.1594 13.8546 18.4363L13.6581 19.0257C13.5586 19.3243 13.3243 19.5586 13.0257 19.6581L11.2917 20.2361C10.8333 20.3889 10.5497 20.8478 10.618 21.3262L10.8999 23.2996C10.9599 23.7193 11.278 24.0556 11.6938 24.1388L12.8795 24.3759C13.2584 24.4517 13.5598 24.739 13.6535 25.1139L13.9216 26.1863C13.9726 26.3902 13.958 26.6051 13.8799 26.8002L13.2449 28.3878C13.0963 28.7592 13.1834 29.1834 13.4663 29.4663L14.4479 30.4479C14.7724 30.7724 15.276 30.8344 15.6695 30.5983L17.0293 29.7824C17.3225 29.6065 17.6852 29.5926 17.991 29.7455L19.1295 30.3148C19.3667 30.4334 19.5471 30.6414 19.631 30.893L20.2721 32.8162C20.4082 33.2246 20.7903 33.5 21.2208 33.5H22.7792C23.2097 33.5 23.5918 33.2246 23.7279 32.8162L24.369 30.893C24.4529 30.6414 24.6333 30.4334 24.8705 30.3148L25.9472 29.7764C26.286 29.607 26.6914 29.6436 26.9944 29.8708L27.934 30.5755C28.2732 30.8299 28.7359 30.8427 29.0887 30.6075L30.7066 29.5289C31.1508 29.2328 31.2841 28.6401 31.0094 28.1824L30.1989 26.8315C30.0709 26.6182 30.027 26.3648 30.0758 26.1209L30.3693 24.6537C30.4484 24.2579 30.7579 23.9484 31.1537 23.8693L32.1961 23.6608C32.6635 23.5673 33 23.1569 33 22.6802V20.8198C33 20.3431 32.6635 19.9327 32.1961 19.8392L30.9796 19.5959C30.677 19.5354 30.4193 19.3386 30.2813 19.0626L29.7455 17.991C29.5926 17.6852 29.6065 17.3225 29.7824 17.0293L30.5983 15.6695C30.8344 15.276 30.7724 14.7724 30.4479 14.4479L29.0521 13.0521C28.7276 12.7276 28.224 12.6656 27.8305 12.9017L26.3944 13.7634C26.1441 13.9136 25.8406 13.9469 25.5637 13.8546L25.0712 13.6904C24.7198 13.5733 24.4619 13.2715 24.401 12.9061L24.1393 11.3356C24.0589 10.8534 23.6417 10.5 23.1529 10.5H20.8471C20.3583 10.5 19.9411 10.8534 19.8607 11.3356Z" stroke="#00712D" stroke-width="2"/>
<circle cx="22" cy="22" r="4" stroke="#00712D" stroke-width="2"/>
</svg>
